<svg xmlns="http://www.w3.org/2000/svg" width="800" height="450" viewBox="0 0 800 450">
  <defs>
    <linearGradient id="bg5" x1="0" y1="0" x2="1" y2="1">
      <stop offset="0%" stop-color="#0f172a"/>
      <stop offset="100%" stop-color="#1e293b"/>
    </linearGradient>
    <linearGradient id="orb5" x1="0" y1="0" x2="1" y2="1">
      <stop offset="0%" stop-color="#f97316" stop-opacity="0.5"/>
      <stop offset="100%" stop-color="#f97316" stop-opacity="0"/>
    </linearGradient>
    <radialGradient id="glow5" cx="70%" cy="30%" r="50%">
      <stop offset="0%" stop-color="#fb923c" stop-opacity="0.35"/>
      <stop offset="100%" stop-color="#fb923c" stop-opacity="0"/>
    </radialGradient>
  </defs>
  <rect width="800" height="450" fill="url(#bg5)"/>
  <ellipse cx="560" cy="135" rx="320" ry="220" fill="url(#glow5)"/>
  <!-- grid lines -->
  <line x1="0" y1="90" x2="800" y2="90" stroke="#334155" stroke-width="0.5"/>
  <line x1="0" y1="180" x2="800" y2="180" stroke="#334155" stroke-width="0.5"/>
  <line x1="0" y1="270" x2="800" y2="270" stroke="#334155" stroke-width="0.5"/>
  <line x1="0" y1="360" x2="800" y2="360" stroke="#334155" stroke-width="0.5"/>
  <line x1="160" y1="0" x2="160" y2="450" stroke="#334155" stroke-width="0.5"/>
  <line x1="320" y1="0" x2="320" y2="450" stroke="#334155" stroke-width="0.5"/>
  <line x1="480" y1="0" x2="480" y2="450" stroke="#334155" stroke-width="0.5"/>
  <line x1="640" y1="0" x2="640" y2="450" stroke="#334155" stroke-width="0.5"/>
  <!-- cloud shape -->
  <g transform="translate(500, 80)">
    <ellipse cx="80" cy="80" rx="75" ry="50" fill="#f9731620" stroke="#f97316" stroke-width="1.5"/>
    <ellipse cx="50" cy="90" rx="45" ry="38" fill="#f9731615" stroke="#f97316" stroke-width="1"/>
    <ellipse cx="115" cy="95" rx="40" ry="32" fill="#f9731615" stroke="#f97316" stroke-width="1"/>
    <rect x="30" y="100" width="130" height="30" rx="4" fill="#f9731625" stroke="#f97316" stroke-width="1"/>
    <!-- download arrows -->
    <line x1="65" y1="140" x2="65" y2="165" stroke="#f97316" stroke-width="2"/>
    <polyline points="58,158 65,167 72,158" fill="none" stroke="#f97316" stroke-width="2"/>
    <line x1="95" y1="140" x2="95" y2="165" stroke="#f97316" stroke-width="2"/>
    <polyline points="88,158 95,167 102,158" fill="none" stroke="#f97316" stroke-width="2"/>
    <line x1="125" y1="140" x2="125" y2="165" stroke="#f97316" stroke-width="2"/>
    <polyline points="118,158 125,167 132,158" fill="none" stroke="#f97316" stroke-width="2"/>
  </g>
  <!-- terminal block -->
  <rect x="490" y="270" width="240" height="130" rx="8" fill="#0f172a" stroke="#334155" stroke-width="1.5"/>
  <rect x="490" y="270" width="240" height="24" rx="8" fill="#1e293b"/>
  <circle cx="508" cy="282" r="5" fill="#ef4444"/>
  <circle cx="524" cy="282" r="5" fill="#f59e0b"/>
  <circle cx="540" cy="282" r="5" fill="#22c55e"/>
  <text x="502" y="312" font-family="monospace" font-size="11" fill="#f97316">$ wrangler deploy</text>
  <text x="502" y="330" font-family="monospace" font-size="11" fill="#22c55e">✓ Uploaded vlapp</text>
  <text x="502" y="348" font-family="monospace" font-size="11" fill="#94a3b8">  https://vlapp.workers.dev</text>
  <text x="502" y="366" font-family="monospace" font-size="11" fill="#f97316">$ _</text>
  <!-- labels -->
  <text x="55" y="180" font-family="system-ui, sans-serif" font-weight="700" font-size="12" fill="#f97316" letter-spacing="3">DEVOPS &amp; CLOUD</text>
  <text x="55" y="228" font-family="system-ui, sans-serif" font-weight="800" font-size="38" fill="white">Deploy &amp; Scale</text>
  <text x="55" y="275" font-family="system-ui, sans-serif" font-weight="800" font-size="38" fill="white">on Cloudflare</text>
  <text x="55" y="316" font-family="system-ui, sans-serif" font-size="14" fill="#94a3b8">Workers · Pages · D1 · R2 · CI/CD</text>
  <rect x="55" y="340" width="120" height="28" rx="14" fill="#f9731620" stroke="#f97316" stroke-width="1"/>
  <text x="115" y="359" font-family="system-ui, sans-serif" font-size="12" fill="#f97316" text-anchor="middle">Intermediate</text>
</svg>
