<svg xmlns="http://www.w3.org/2000/svg" width="900" height="560" viewBox="0 0 900 560">
  <defs>
    <linearGradient id="bg" x1="0" y1="0" x2="1" y2="1">
      <stop offset="0%" stop-color="#0d1117"/>
      <stop offset="100%" stop-color="#0a0e1a"/>
    </linearGradient>
    <linearGradient id="panelL" x1="0" y1="0" x2="0" y2="1">
      <stop offset="0%" stop-color="#161b22"/>
      <stop offset="100%" stop-color="#0d1117"/>
    </linearGradient>
    <linearGradient id="panelR" x1="0" y1="0" x2="0" y2="1">
      <stop offset="0%" stop-color="#1a1f2e"/>
      <stop offset="100%" stop-color="#111827"/>
    </linearGradient>
    <radialGradient id="glow1" cx="30%" cy="50%" r="50%">
      <stop offset="0%" stop-color="#00e5a0" stop-opacity="0.12"/>
      <stop offset="100%" stop-color="#00e5a0" stop-opacity="0"/>
    </radialGradient>
    <radialGradient id="glow2" cx="80%" cy="50%" r="40%">
      <stop offset="0%" stop-color="#3b82f6" stop-opacity="0.1"/>
      <stop offset="100%" stop-color="#3b82f6" stop-opacity="0"/>
    </radialGradient>
  </defs>

  <!-- Background -->
  <rect width="900" height="560" fill="url(#bg)"/>
  <rect width="900" height="560" fill="url(#glow1)"/>
  <rect width="900" height="560" fill="url(#glow2)"/>

  <!-- Grid pattern dots -->
  <g opacity="0.08" fill="#ffffff">
    <rect x="80" y="40" width="1.5" height="1.5" rx="1"/><rect x="120" y="40" width="1.5" height="1.5" rx="1"/><rect x="160" y="40" width="1.5" height="1.5" rx="1"/><rect x="200" y="40" width="1.5" height="1.5" rx="1"/><rect x="240" y="40" width="1.5" height="1.5" rx="1"/><rect x="280" y="40" width="1.5" height="1.5" rx="1"/><rect x="320" y="40" width="1.5" height="1.5" rx="1"/><rect x="360" y="40" width="1.5" height="1.5" rx="1"/><rect x="400" y="40" width="1.5" height="1.5" rx="1"/><rect x="440" y="40" width="1.5" height="1.5" rx="1"/><rect x="480" y="40" width="1.5" height="1.5" rx="1"/><rect x="520" y="40" width="1.5" height="1.5" rx="1"/><rect x="560" y="40" width="1.5" height="1.5" rx="1"/><rect x="600" y="40" width="1.5" height="1.5" rx="1"/><rect x="640" y="40" width="1.5" height="1.5" rx="1"/><rect x="680" y="40" width="1.5" height="1.5" rx="1"/><rect x="720" y="40" width="1.5" height="1.5" rx="1"/>
    <rect x="80" y="80" width="1.5" height="1.5" rx="1"/><rect x="120" y="80" width="1.5" height="1.5" rx="1"/><rect x="160" y="80" width="1.5" height="1.5" rx="1"/><rect x="200" y="80" width="1.5" height="1.5" rx="1"/><rect x="240" y="80" width="1.5" height="1.5" rx="1"/><rect x="280" y="80" width="1.5" height="1.5" rx="1"/><rect x="320" y="80" width="1.5" height="1.5" rx="1"/><rect x="360" y="80" width="1.5" height="1.5" rx="1"/><rect x="400" y="80" width="1.5" height="1.5" rx="1"/><rect x="440" y="80" width="1.5" height="1.5" rx="1"/>
  </g>

  <!-- ═══ LEFT PANEL: CODE EDITOR ═══ -->
  <rect x="20" y="20" width="430" height="520" rx="12" fill="url(#panelL)" stroke="#30363d" stroke-width="1"/>

  <!-- Editor title bar -->
  <rect x="20" y="20" width="430" height="38" rx="12" fill="#21262d"/>
  <rect x="20" y="44" width="430" height="14" fill="#21262d"/>
  <!-- Dots -->
  <circle cx="44" cy="39" r="5.5" fill="#ff5f57"/>
  <circle cx="63" cy="39" r="5.5" fill="#ffbd2e"/>
  <circle cx="82" cy="39" r="5.5" fill="#28c840"/>
  <!-- Tab -->
  <rect x="104" y="24" width="110" height="26" rx="5" fill="#0d1117" stroke="#444c56" stroke-width="0.8"/>
  <circle cx="118" cy="37" r="4" fill="#28c840"/>
  <text x="128" y="41" font-family="ui-monospace,Consolas,monospace" font-size="11" fill="#c9d1d9">App.tsx</text>

  <!-- Line numbers bg -->
  <rect x="20" y="58" width="34" height="482" fill="#0d1117"/>
  <rect x="54" y="58" width="1" height="482" fill="#21262d"/>

  <!-- Code lines - carefully crafted -->
  <g font-family="ui-monospace,Consolas,monospace" font-size="12">
    <!-- Line numbers -->
    <g fill="#484f58" font-size="11" text-anchor="end">
      <text x="46" y="80">1</text><text x="46" y="98">2</text><text x="46" y="116">3</text>
      <text x="46" y="134">4</text><text x="46" y="152">5</text><text x="46" y="170">6</text>
      <text x="46" y="188">7</text><text x="46" y="206">8</text><text x="46" y="224">9</text>
      <text x="46" y="242">10</text><text x="46" y="260">11</text><text x="46" y="278">12</text>
      <text x="46" y="296">13</text><text x="46" y="314">14</text><text x="46" y="332">15</text>
      <text x="46" y="350">16</text><text x="46" y="368">17</text><text x="46" y="386">18</text>
      <text x="46" y="404">19</text><text x="46" y="422">20</text><text x="46" y="440">21</text>
    </g>

    <!-- L1: import react -->
    <text x="62" y="80"><tspan fill="#ff7b72">import</tspan><tspan fill="#c9d1d9"> { useState } </tspan><tspan fill="#ff7b72">from</tspan><tspan fill="#a5d6ff"> 'react'</tspan></text>
    <!-- L2: import ai -->
    <text x="62" y="98"><tspan fill="#ff7b72">import</tspan><tspan fill="#c9d1d9"> { generateAI } </tspan><tspan fill="#ff7b72">from</tspan><tspan fill="#a5d6ff"> '@ai/core'</tspan></text>
    <!-- L3: blank -->
    <!-- L4: type -->
    <text x="62" y="134"><tspan fill="#ffa657">type</tspan><tspan fill="#79c0ff"> Message</tspan><tspan fill="#c9d1d9"> = { </tspan><tspan fill="#79c0ff">role</tspan><tspan fill="#c9d1d9">: </tspan><tspan fill="#a5d6ff">'user'</tspan><tspan fill="#c9d1d9"> | </tspan><tspan fill="#a5d6ff">'ai'</tspan><tspan fill="#c9d1d9">; </tspan><tspan fill="#79c0ff">text</tspan><tspan fill="#c9d1d9">: </tspan><tspan fill="#ffa657">string</tspan><tspan fill="#c9d1d9"> }</tspan></text>
    <!-- L5: blank -->
    <!-- L6: export function -->
    <text x="62" y="170"><tspan fill="#ff7b72">export default function</tspan><tspan fill="#d2a8ff"> VibeCoder</tspan><tspan fill="#c9d1d9">() {</tspan></text>
    <!-- L7: useState -->
    <text x="78" y="188"><tspan fill="#ffa657">const</tspan><tspan fill="#c9d1d9"> [</tspan><tspan fill="#79c0ff">msgs</tspan><tspan fill="#c9d1d9">, </tspan><tspan fill="#79c0ff">setMsgs</tspan><tspan fill="#c9d1d9">] = </tspan><tspan fill="#d2a8ff">useState</tspan><tspan fill="#c9d1d9">&lt;</tspan><tspan fill="#79c0ff">Message</tspan><tspan fill="#c9d1d9">[]&gt;([])</tspan></text>
    <!-- L8: input state -->
    <text x="78" y="206"><tspan fill="#ffa657">const</tspan><tspan fill="#c9d1d9"> [</tspan><tspan fill="#79c0ff">input</tspan><tspan fill="#c9d1d9">, </tspan><tspan fill="#79c0ff">setInput</tspan><tspan fill="#c9d1d9">] = </tspan><tspan fill="#d2a8ff">useState</tspan><tspan fill="#c9d1d9">('')</tspan></text>
    <!-- L9: blank -->
    <!-- L10: async fn -->
    <text x="78" y="242"><tspan fill="#ffa657">const</tspan><tspan fill="#79c0ff"> handleAI</tspan><tspan fill="#c9d1d9"> = </tspan><tspan fill="#ff7b72">async</tspan><tspan fill="#c9d1d9"> () =&gt; {</tspan></text>
    <!-- L11: await call -->
    <text x="94" y="260"><tspan fill="#ffa657">const</tspan><tspan fill="#79c0ff"> res</tspan><tspan fill="#c9d1d9"> = </tspan><tspan fill="#ff7b72">await</tspan><tspan fill="#d2a8ff"> generateAI</tspan><tspan fill="#c9d1d9">({ </tspan><tspan fill="#79c0ff">prompt</tspan><tspan fill="#c9d1d9">: </tspan><tspan fill="#79c0ff">input</tspan><tspan fill="#c9d1d9"> })</tspan></text>
    <!-- L12: setMsgs -->
    <text x="94" y="278"><tspan fill="#d2a8ff">setMsgs</tspan><tspan fill="#c9d1d9">(p =&gt; [...p, { </tspan><tspan fill="#79c0ff">role</tspan><tspan fill="#c9d1d9">:</tspan><tspan fill="#a5d6ff">'ai'</tspan><tspan fill="#c9d1d9">, </tspan><tspan fill="#79c0ff">text</tspan><tspan fill="#c9d1d9">:</tspan><tspan fill="#79c0ff">res</tspan><tspan fill="#c9d1d9"> }])</tspan></text>
    <!-- L13: close fn -->
    <text x="78" y="296"><tspan fill="#c9d1d9">}</tspan></text>
    <!-- L14: blank -->
    <!-- L15: return -->
    <text x="78" y="332"><tspan fill="#ff7b72">return</tspan><tspan fill="#c9d1d9"> (</tspan></text>
    <!-- L16: div -->
    <text x="94" y="350"><tspan fill="#79c0ff">&lt;div</tspan><tspan fill="#ffa657"> className</tspan><tspan fill="#c9d1d9">=</tspan><tspan fill="#a5d6ff">"vibe-app"</tspan><tspan fill="#79c0ff">&gt;</tspan></text>
    <!-- L17: ChatWindow -->
    <text x="110" y="368"><tspan fill="#79c0ff">&lt;ChatWindow</tspan><tspan fill="#ffa657"> messages</tspan><tspan fill="#c9d1d9">={</tspan><tspan fill="#79c0ff">msgs</tspan><tspan fill="#c9d1d9">} /&gt;</tspan></text>
    <!-- L18: PromptBar -->
    <text x="110" y="386"><tspan fill="#79c0ff">&lt;PromptBar</tspan><tspan fill="#ffa657"> onSend</tspan><tspan fill="#c9d1d9">={</tspan><tspan fill="#79c0ff">handleAI</tspan><tspan fill="#c9d1d9">} /&gt;</tspan></text>
    <!-- L19: /div -->
    <text x="94" y="404"><tspan fill="#79c0ff">&lt;/div&gt;</tspan></text>
    <!-- L20: close return -->
    <text x="78" y="422"><tspan fill="#c9d1d9">)</tspan></text>
    <!-- L21: close function -->
    <text x="62" y="440"><tspan fill="#c9d1d9">}</tspan></text>
  </g>

  <!-- AI autocomplete popup -->
  <rect x="64" y="454" width="300" height="52" rx="6" fill="#1c2333" stroke="#388bfd" stroke-width="1"/>
  <rect x="64" y="454" width="300" height="18" rx="6" fill="#388bfd" fill-opacity="0.15"/>
  <rect x="64" y="466" width="300" height="6" fill="#1c2333"/>
  <text x="74" y="467" font-family="ui-monospace,Consolas,monospace" font-size="10" fill="#388bfd">&#9889; AI suggestion — Tab to accept</text>
  <text x="74" y="487" font-family="ui-monospace,Consolas,monospace" font-size="11.5" fill="#7ee787">  const</text>
  <text x="118" y="487" font-family="ui-monospace,Consolas,monospace" font-size="11.5" fill="#79c0ff"> stream</text>
  <text x="160" y="487" font-family="ui-monospace,Consolas,monospace" font-size="11.5" fill="#c9d1d9"> = </text>
  <text x="176" y="487" font-family="ui-monospace,Consolas,monospace" font-size="11.5" fill="#ff7b72">await</text>
  <text x="214" y="487" font-family="ui-monospace,Consolas,monospace" font-size="11.5" fill="#d2a8ff"> ai.stream</text>
  <text x="278" y="487" font-family="ui-monospace,Consolas,monospace" font-size="11.5" fill="#c9d1d9">(input)</text>

  <!-- Cursor -->
  <rect x="62" y="508" width="2" height="16" fill="#00e5a0"/>
  <text x="68" y="520" font-family="ui-monospace,Consolas,monospace" font-size="11.5" fill="#484f58">// your AI co-pilot is ready_</text>

  <!-- ═══ RIGHT PANEL: AI CHAT ═══ -->
  <rect x="462" y="20" width="418" height="520" rx="12" fill="url(#panelR)" stroke="#30363d" stroke-width="1"/>

  <!-- Chat title bar -->
  <rect x="462" y="20" width="418" height="38" rx="12" fill="#1a1f2e"/>
  <rect x="462" y="44" width="418" height="14" fill="#1a1f2e"/>

  <!-- Model indicator -->
  <rect x="476" y="26" width="82" height="22" rx="11" fill="#00e5a0" fill-opacity="0.12" stroke="#00e5a0" stroke-width="0.8"/>
  <circle cx="490" cy="37" r="4" fill="#00e5a0"/>
  <text x="500" y="41" font-family="ui-sans-serif,system-ui,sans-serif" font-size="10.5" font-weight="700" fill="#00e5a0">Claude AI</text>
  <text x="576" y="41" font-family="ui-sans-serif,system-ui,sans-serif" font-size="10.5" fill="#8b949e">VibeLearn Assistant</text>

  <!-- Chat bubble 1: user -->
  <rect x="494" y="66" width="368" height="54" rx="10" fill="#00e5a0" fill-opacity="0.1" stroke="#00e5a0" stroke-width="0.6"/>
  <text x="510" y="85" font-family="ui-sans-serif,system-ui,sans-serif" font-size="11" font-weight="700" fill="#00e5a0">You</text>
  <text x="510" y="102" font-family="ui-sans-serif,system-ui,sans-serif" font-size="12" fill="#c9d1d9">Build me a React + AI chat app</text>
  <text x="510" y="116" font-family="ui-sans-serif,system-ui,sans-serif" font-size="12" fill="#c9d1d9">with streaming responses</text>

  <!-- Chat bubble 2: Claude -->
  <rect x="462" y="132" width="368" height="112" rx="10" fill="#21262d" stroke="#30363d" stroke-width="0.8"/>
  <!-- Claude icon -->
  <circle cx="482" cy="150" r="12" fill="#00e5a0" fill-opacity="0.15" stroke="#00e5a0" stroke-width="0.8"/>
  <text x="476" y="154" font-family="ui-sans-serif,system-ui,sans-serif" font-size="12">&#10024;</text>
  <text x="502" y="153" font-family="ui-sans-serif,system-ui,sans-serif" font-size="11" font-weight="700" fill="#00e5a0">Claude</text>
  <line x1="462" y1="163" x2="830" y2="163" stroke="#30363d" stroke-width="0.7"/>
  <text x="476" y="180" font-family="ui-sans-serif,system-ui,sans-serif" font-size="12" fill="#c9d1d9">Sure! Here's your streaming chat app:</text>
  <text x="476" y="200" font-family="ui-sans-serif,system-ui,sans-serif" font-size="11.5" fill="#7ee787">&#10003; useChat hook configured</text>
  <text x="476" y="218" font-family="ui-sans-serif,system-ui,sans-serif" font-size="11.5" fill="#7ee787">&#10003; Real-time token streaming</text>
  <text x="476" y="236" font-family="ui-sans-serif,system-ui,sans-serif" font-size="11.5" fill="#7ee787">&#10003; Tailwind dark-mode UI ready</text>

  <!-- Chat bubble 3: user -->
  <rect x="532" y="256" width="298" height="38" rx="10" fill="#00e5a0" fill-opacity="0.1" stroke="#00e5a0" stroke-width="0.6"/>
  <text x="548" y="278" font-family="ui-sans-serif,system-ui,sans-serif" font-size="12" fill="#c9d1d9">Now add auth with JWT tokens</text>

  <!-- Chat bubble 4: Claude code -->
  <rect x="462" y="306" width="368" height="130" rx="10" fill="#21262d" stroke="#30363d" stroke-width="0.8"/>
  <text x="476" y="323" font-family="ui-sans-serif,system-ui,sans-serif" font-size="11" font-weight="700" fill="#00e5a0">&#10024; Claude</text>
  <text x="476" y="340" font-family="ui-sans-serif,system-ui,sans-serif" font-size="11.5" fill="#c9d1d9">Here's the auth middleware:</text>
  <!-- Code block -->
  <rect x="476" y="348" width="340" height="78" rx="6" fill="#0d1117" stroke="#21262d" stroke-width="0.8"/>
  <text x="490" y="367" font-family="ui-monospace,Consolas,monospace" font-size="11"><tspan fill="#ff7b72">export</tspan><tspan fill="#c9d1d9"> </tspan><tspan fill="#ff7b72">async function</tspan><tspan fill="#d2a8ff"> auth</tspan><tspan fill="#c9d1d9">(req) {</tspan></text>
  <text x="490" y="384" font-family="ui-monospace,Consolas,monospace" font-size="11"><tspan fill="#ffa657">  const</tspan><tspan fill="#79c0ff"> token</tspan><tspan fill="#c9d1d9"> = req.headers.</tspan><tspan fill="#79c0ff">get</tspan><tspan fill="#c9d1d9">(</tspan><tspan fill="#a5d6ff">'auth'</tspan><tspan fill="#c9d1d9">)</tspan></text>
  <text x="490" y="401" font-family="ui-monospace,Consolas,monospace" font-size="11"><tspan fill="#ffa657">  const</tspan><tspan fill="#79c0ff"> user</tspan><tspan fill="#c9d1d9"> = </tspan><tspan fill="#ff7b72">await</tspan><tspan fill="#d2a8ff"> verifyJWT</tspan><tspan fill="#c9d1d9">(token)</tspan></text>
  <text x="490" y="418" font-family="ui-monospace,Consolas,monospace" font-size="11"><tspan fill="#ff7b72">  if</tspan><tspan fill="#c9d1d9"> (!</tspan><tspan fill="#79c0ff">user</tspan><tspan fill="#c9d1d9">) </tspan><tspan fill="#ff7b72">throw</tspan><tspan fill="#c9d1d9"> </tspan><tspan fill="#d2a8ff">unauthorized</tspan><tspan fill="#c9d1d9">()</tspan></text>
  <text x="490" y="420" font-family="ui-monospace,Consolas,monospace" font-size="11"><tspan fill="#c9d1d9">}</tspan></text>

  <!-- Typing indicator -->
  <rect x="462" y="448" width="90" height="30" rx="15" fill="#21262d" stroke="#30363d" stroke-width="0.7"/>
  <circle cx="485" cy="463" r="4" fill="#6e7681"/>
  <circle cx="501" cy="463" r="4" fill="#6e7681"/>
  <circle cx="517" cy="463" r="4" fill="#6e7681"/>

  <!-- Input bar -->
  <rect x="462" y="490" width="418" height="40" rx="10" fill="#21262d" stroke="#30363d" stroke-width="0.8"/>
  <text x="480" y="514" font-family="ui-sans-serif,system-ui,sans-serif" font-size="12" fill="#484f58">Ask Claude to build anything...</text>
  <!-- Send button -->
  <rect x="846" y="496" width="28" height="28" rx="7" fill="#00e5a0"/>
  <text x="853" y="514" font-family="ui-sans-serif,system-ui,sans-serif" font-size="15" font-weight="700" fill="#0d1117">&#8593;</text>

  <!-- Status bar -->
  <text x="462" y="544" font-family="ui-monospace,Consolas,monospace" font-size="10" fill="#3d444d">claude-sonnet-4  &#183;  streaming enabled</text>
  <circle cx="792" cy="540" r="3" fill="#28c840"/>
  <text x="800" y="544" font-family="ui-sans-serif,system-ui,sans-serif" font-size="10" fill="#28c840">live</text>

  <!-- Center glow separator -->
  <rect x="449" y="20" width="10" height="520" rx="5" fill="#00e5a0" fill-opacity="0.04"/>
  <line x1="454" y1="40" x2="454" y2="520" stroke="#00e5a0" stroke-width="0.5" stroke-opacity="0.3"/>

</svg>
